<svg xmlns="http://www.w3.org/2000/svg" width="1200" height="420" viewBox="0 0 1200 420" role="img" aria-labelledby="title desc">
  <title id="title">GLearning</title>
  <desc id="desc">English and Chinese game dialogue is paired into a source-aware reader with audio, saving, and review.</desc>
  <rect width="1200" height="420" rx="28" fill="#071D22"/>
  <path d="M0 334 C230 280 350 420 610 338 C835 267 978 347 1200 295 V420 H0Z" fill="#0D3035"/>
  <g font-family="-apple-system, BlinkMacSystemFont, Segoe UI, PingFang SC, sans-serif">
    <text x="58" y="58" fill="#76D7C4" font-size="16" letter-spacing="3">GAME DIALOGUE · LANGUAGE READER</text>
    <text x="56" y="151" fill="#F1FFF9" font-size="76" font-weight="760">GLearning</text>
    <text x="60" y="199" fill="#B8D8D2" font-size="24">把熟悉的剧情，变成有来源的双语阅读课。</text>
    <g transform="translate(60 245)" font-family="ui-monospace, SFMono-Regular, Menlo, monospace">
      <rect width="130" height="40" rx="20" fill="#133B3F"/>
      <circle cx="22" cy="20" r="5" fill="#76D7C4"/>
      <text x="37" y="26" fill="#D8F7F0" font-size="14">WUWA LIVE</text>
      <rect x="142" width="154" height="40" rx="20" fill="#133B3F"/>
      <text x="165" y="26" fill="#D8F7F0" font-size="14">7 SAMPLE WORLDS</text>
    </g>
    <g transform="translate(665 48)">
      <rect width="473" height="314" rx="22" fill="#F5F0DE"/>
      <text x="28" y="39" fill="#71807A" font-family="ui-monospace, SFMono-Regular, Menlo, monospace" font-size="13">READER SPECIMEN · CURATED SAMPLE</text>
      <line x1="28" y1="58" x2="445" y2="58" stroke="#D4CEB9"/>
      <text x="28" y="99" fill="#253633" font-size="17" font-weight="700">YANGYANG</text>
      <text x="28" y="132" fill="#213330" font-size="20">The resonance is thicker here.</text>
      <text x="28" y="170" fill="#416660" font-size="20">这里的共鸣更浓，像空气记得什么。</text>
      <rect x="28" y="201" width="112" height="34" rx="7" fill="#DCECE4"/>
      <text x="47" y="224" fill="#31564F" font-size="14">▶ source clip</text>
      <rect x="150" y="201" width="86" height="34" rx="7" fill="#E9E4D2"/>
      <text x="173" y="224" fill="#665E47" font-size="14">save</text>
      <text x="28" y="278" fill="#71807A" font-size="14">FANDOM EN  +  KURO / BWIKI ZH  →  ALIGNED</text>
    </g>
  </g>
</svg>
